<svg version="1.1" xmlns="http://www.w3.org/2000/svg" xmlns:xlink="http://www.w3.org/1999/xlink" width="194.45391" height="190.43754" viewBox="0,0,194.45391,190.43754"><g transform="translate(-1184.48767,-433.2525)"><g data-paper-data="{&quot;isPaintingLayer&quot;:true}" fill-rule="nonzero" stroke-linecap="butt" stroke-linejoin="miter" stroke-miterlimit="10" stroke-dasharray="" stroke-dashoffset="0" style="mix-blend-mode: normal"><text transform="translate(1186.19563,580.99104) scale(3.41592,3.41592)" font-size="40" xml:space="preserve" fill="#9966ff" fill-rule="nonzero" stroke="none" stroke-width="1" stroke-linecap="butt" stroke-linejoin="miter" stroke-miterlimit="10" stroke-dasharray="" stroke-dashoffset="0" font-family="Sans Serif" font-weight="normal" text-anchor="start" style="mix-blend-mode: normal"><tspan x="0" dy="0">🤩</tspan></text><path d="M1348.90776,532.8688c0,37.84228 -30.79981,68.5195 -68.79327,68.5195c-37.99348,0 -68.79327,-30.67723 -68.79327,-68.5195c0,-37.84228 30.79981,-68.5195 68.79327,-68.5195c37.99348,0 68.79327,30.67723 68.79327,68.5195z" fill="none" stroke="#ff9519" stroke-width="1.5"/><path d="M1220.65281,501.60753c-2.5,0 -2.5,-2.5 -2.5,-2.5v-0.30264c0.21239,-1.46368 -0.24088,-3.20088 0.63718,-4.39104c0.5215,-0.70687 1.7002,-0.28775 2.59784,-0.45208l0.53532,-1.42751c0.34031,-0.9763 1.269,-1.67684 2.36132,-1.67684c0.03689,0 0.07359,0.0008 0.11008,0.00238l1.50413,-2.0055l1.47693,-2.0677c0.45157,-0.64913 1.20302,-1.07402 2.0537,-1.07402c0.2593,0 0.50939,0.03948 0.74457,0.11275c1.24884,-2.84973 2.8444,-5.53922 5.28922,-7.4568c0.60846,-0.47724 1.22125,-1.03756 1.83653,-1.54633c0.11862,-0.31578 0.32463,-0.64274 0.6516,-0.9697c0.46202,-0.46202 0.92404,-0.68254 1.3545,-0.75622c-0.04363,-0.13367 -0.08953,-0.2661 -0.13867,-0.3968l1.89598,-0.45574l-0.40603,-1.08275l2.36715,-0.88768c0.28795,-0.11572 0.60242,-0.17941 0.93176,-0.17941c1.38071,0 2.5,1.11929 2.5,2.5c0,0.55242 -0.17917,1.06299 -0.48258,1.47677l-0.61498,0.86098c0.03317,0.05594 0.05386,0.11992 0.05907,0.19387c0.01366,0.19377 0.01942,0.38719 0.01834,0.58033l0.10198,-0.00927l0.29981,3.29786c0.00866,0.08465 0.0131,0.17056 0.0131,0.25749c0,1.38071 -1.11929,2.5 -2.5,2.5c-0.05972,0 -0.11895,-0.00209 -0.17762,-0.00621c-0.43875,0.38092 -1.01155,0.61149 -1.6382,0.61149c-0.45693,0 -0.88523,-0.12258 -1.25381,-0.33666l-2.43682,-1.35379c-0.37236,0.29351 -0.70056,0.61763 -0.96245,0.98647c-1.93824,2.72982 -3.75207,7.32565 -5.1518,10.16886l-0.46594,0.0167c-0.23432,0.33802 -0.48452,0.66476 -0.71448,0.98041c-0.85456,1.17296 -1.77075,2.46924 -3.09574,3.06126c-1.39606,0.62378 -2.99388,0.53811 -4.5376,0.64268c0.09642,0.09829 0.18395,0.19436 0.23666,0.28176v0.30264c0,0 0,2.5 -2.5,2.5zM1222.43443,497.94658l0.11903,-0.21893c-0.01281,0.00645 -0.02542,0.01338 -0.03783,0.02081c-0.08583,0.0514 -0.10476,0.11947 -0.0812,0.19813z" fill="#bb1d80" stroke="none" stroke-width="0.5"/><path d="M1334.14181,499.48907c-1.38071,0 -2.5,-1.11929 -2.5,-2.5c0,-0.74768 0.32822,-1.4187 0.84844,-1.87683l2.45199,-2.17954c-0.40002,-0.24635 -0.78776,-0.52742 -1.18203,-0.76252c-1.75815,-1.04839 -6.47178,-2.55201 -7.85707,-4.29605l-1.44928,-0.80516l0.07771,-0.13988l-0.36909,-0.04964c-0.81232,-0.83246 -1.81006,-1.51765 -2.43696,-2.49737c-0.53269,-0.83247 -0.47387,-1.94402 -0.95678,-2.80632c-0.30854,-0.55092 -0.83233,-0.96357 -1.27677,-1.42287c-0.5345,0.41596 -1.11877,0.64949 -1.7968,0.53933c-1.54052,-0.2503 -1.866,-2.19491 -2.34459,-3.92603c-0.75371,-0.43057 -1.26172,-1.2421 -1.26172,-2.17228c0,-1.21151 0.86176,-2.22174 2.00574,-2.45115l2.62303,-0.5829c0.19068,-0.04655 0.38994,-0.07123 0.59496,-0.07123c0.76528,0 1.45025,0.34386 1.90884,0.8855c0.37137,0.06926 0.77127,0.24701 1.18744,0.58752c1.09474,0.89569 1.06331,1.904 0.82962,2.61077c-0.00781,0.58164 -0.03357,1.18792 0.18308,1.65743c0.35406,0.76732 1.28229,1.14676 1.69816,1.88242c0.10031,0.17745 0.19263,0.36087 0.28018,0.54781c0.92369,0.01252 1.7264,0.52599 2.14877,1.28106l1.78121,3.0535l0.4878,0.34843c0.17941,0.12481 0.34169,0.27252 0.48261,0.43891c0.36939,0.24296 0.71035,0.44253 1.00562,0.57955c2.47035,1.14645 4.83707,2.0914 7.16421,3.58584c1.34548,0.86404 3.88912,1.20716 3.89067,2.80619c0.0009,0.92479 -0.53169,1.65878 -1.23478,2.3318c0.41015,0.44534 0.66064,1.04 0.66064,1.69317c0,0.57191 -0.19204,1.09897 -0.51515,1.5202l-0.65797,0.87729l0.37396,1.86979l-1.3242,0.26484l-0.04421,0.66487c0,0 -1.82468,1.04268 -3.08408,-0.45693c-0.58823,-0.23761 -1.06538,-0.69254 -1.33194,-1.26528c-0.32214,0.15125 -0.68182,0.23577 -1.06125,0.23577z" fill="#bb1d80" stroke="none" stroke-width="0.5"/></g></g></svg>