<svg version="1.1" xmlns="http://www.w3.org/2000/svg" xmlns:xlink="http://www.w3.org/1999/xlink" width="194.45391" height="190.43754" viewBox="0,0,194.45391,190.43754"><g transform="translate(-1184.48768,-433.2525)"><g data-paper-data="{&quot;isPaintingLayer&quot;:true}" fill-rule="nonzero" stroke-linecap="butt" stroke-linejoin="miter" stroke-miterlimit="10" stroke-dasharray="" stroke-dashoffset="0" style="mix-blend-mode: normal"><text transform="translate(1186.19564,580.99104) scale(3.41592,3.41592)" font-size="40" xml:space="preserve" fill="#9966ff" fill-rule="nonzero" stroke="none" stroke-width="1" stroke-linecap="butt" stroke-linejoin="miter" stroke-miterlimit="10" stroke-dasharray="" stroke-dashoffset="0" font-family="Sans Serif" font-weight="normal" text-anchor="start" style="mix-blend-mode: normal"><tspan x="0" dy="0">😓</tspan></text><path d="M1348.90777,532.8688c0,37.84228 -30.79981,68.5195 -68.79327,68.5195c-37.99348,0 -68.79327,-30.67723 -68.79327,-68.5195c0,-37.84228 30.79981,-68.5195 68.79327,-68.5195c37.99348,0 68.79327,30.67723 68.79327,68.5195z" fill="none" stroke="#ffe600" stroke-width="1.5"/><path d="M1243.23221,471.32069c2.4876,0.24876 2.23884,2.73635 2.23884,2.73635l-2.31894,4.6407c-0.65391,0.03936 -1.41681,-0.24552 -1.96173,0.11808c-0.6423,0.42858 -0.59721,1.49384 -1.19198,1.98625c-0.79265,0.65623 -1.93509,0.74641 -2.79377,1.31352c-1.5532,1.02581 -1.14658,2.53966 -2.09649,4.06998l-1.62085,4.63102c-0.32499,1.00338 -1.26718,1.72894 -2.37883,1.72894c-1.38071,0 -2.5,-1.11929 -2.5,-2.5c0,-0.07056 0.00292,-0.14044 0.00865,-0.20952c-0.30462,0.06676 -0.6588,0.07825 -1.07016,0.00969c-2.46599,-0.411 -2.05499,-2.87699 -2.05499,-2.87699c0.79546,-2.75525 0.95892,-7.6979 5.8886,-5.40031c0.78831,-1.40846 1.91765,-2.75374 2.84091,-3.46539c0.73129,-0.56368 1.82369,-0.52473 2.53786,-1.10995c0.75569,-0.61924 0.87081,-1.88625 1.71619,-2.376c1.13856,-0.6596 2.56973,-0.56754 3.8546,-0.8513l-1.83425,-0.20624c0,0 0.24875,-2.48759 2.73635,-2.23883z" fill="#3f5fff" stroke="none" stroke-width="0.5"/><path d="M1225.04063,488.25097c1.99862,-1.71311 4.6574,-1.00375 4.6574,2.13045c0,0.57883 -2.1848,3.45796 -2.57969,4.13589c-1.49554,2.56749 -3.27646,7.90067 -5.05897,9.97813c-0.08762,0.10212 -0.19774,0.19854 -0.32526,0.28717c-0.42984,0.34897 -0.97781,0.5581 -1.57462,0.5581c-0.05299,0 -0.10559,-0.00165 -0.15776,-0.0049c-1.08868,0.0577 -2.17032,-0.39458 -2.23588,-1.77138c-0.06917,-0.22909 -0.10636,-0.47207 -0.10636,-0.72373c0,-0.38094 0.0852,-0.74199 0.23759,-1.06511c1.08324,-3.66841 5.3841,-12.01653 7.14355,-13.52463z" fill="#3f5fff" stroke="none" stroke-width="0.5"/></g></g></svg>