<svg version="1.1" xmlns="http://www.w3.org/2000/svg" xmlns:xlink="http://www.w3.org/1999/xlink" width="194.45391" height="190.43754" viewBox="0,0,194.45391,190.43754"><g transform="translate(-1184.48767,-433.2525)"><g data-paper-data="{&quot;isPaintingLayer&quot;:true}" fill-rule="nonzero" stroke-linecap="butt" stroke-linejoin="miter" stroke-miterlimit="10" stroke-dasharray="" stroke-dashoffset="0" style="mix-blend-mode: normal"><text transform="translate(1186.19563,580.99104) scale(3.41592,3.41592)" font-size="40" xml:space="preserve" fill="#9966ff" fill-rule="nonzero" stroke="none" stroke-width="1" stroke-linecap="butt" stroke-linejoin="miter" stroke-miterlimit="10" stroke-dasharray="" stroke-dashoffset="0" font-family="Sans Serif" font-weight="normal" text-anchor="start" style="mix-blend-mode: normal"><tspan x="0" dy="0">🤐</tspan></text><path d="M1348.90776,532.8688c0,37.84228 -30.79981,68.5195 -68.79327,68.5195c-37.99348,0 -68.79327,-30.67723 -68.79327,-68.5195c0,-37.84228 30.79981,-68.5195 68.79327,-68.5195c37.99348,0 68.79327,30.67723 68.79327,68.5195z" fill="none" stroke="#ffe600" stroke-width="1.5"/><path d="M1324.86464,583.38268c0,-0.09148 0.00491,-0.18181 0.01449,-0.27075c-0.00175,-0.01453 -0.0034,-0.02899 -0.00495,-0.04338c-0.48553,-0.53538 -0.87666,-1.39055 -0.33758,-2.60348c1.01535,-2.28453 3.29988,-1.26918 3.29988,-1.26918c0.39999,0.17777 0.79999,0.35555 1.19998,0.53332c0.1203,-0.39816 0.28445,-0.6608 0.28445,-0.6608c1.5227,-2.40602 2.2894,-4.0067 4.91164,-5.79472c0.07418,-0.05058 0.16298,-0.08613 0.25905,-0.10735l0.51236,-3.84222c0,0 0.60075,-1.00125 1.6654,-1.22464c0.45676,-0.49462 1.11075,-0.80437 1.83709,-0.80437c1.38071,0 2.5,1.11929 2.5,2.5c0,1.00714 -0.59555,1.87519 -1.4537,2.27118c0.54346,0.67905 0.9856,1.37785 0.88145,2.18309c-0.18225,1.40907 -2.07071,1.94622 -3.08889,2.9372c-1.41034,1.37266 -2.75311,2.85562 -3.7844,4.53182c0,0 -1.325,2.12 -3.44499,0.795c-0.28497,-0.17811 -0.50769,-0.37058 -0.67975,-0.57033l-0.01155,0.02267c0.27754,0.40272 0.44003,0.89085 0.44003,1.41693c0,1.38071 -1.11929,2.5 -2.5,2.5c-1.38071,0 -2.5,-1.11929 -2.5,-2.5z" fill="#7167a4" stroke="none" stroke-width="0.5"/></g></g></svg>