<svg version="1.1" xmlns="http://www.w3.org/2000/svg" xmlns:xlink="http://www.w3.org/1999/xlink" width="194.45391" height="190.43754" viewBox="0,0,194.45391,190.43754"><g transform="translate(-1184.72586,-428.37225)"><g data-paper-data="{&quot;isPaintingLayer&quot;:true}" fill-rule="nonzero" stroke-linecap="butt" stroke-linejoin="miter" stroke-miterlimit="10" stroke-dasharray="" stroke-dashoffset="0" style="mix-blend-mode: normal"><text transform="translate(1186.43382,576.11079) scale(3.41592,3.41592)" font-size="40" xml:space="preserve" fill="#9966ff" fill-rule="nonzero" stroke="none" stroke-width="1" stroke-linecap="butt" stroke-linejoin="miter" stroke-miterlimit="10" stroke-dasharray="" stroke-dashoffset="0" font-family="Sans Serif" font-weight="normal" text-anchor="start" style="mix-blend-mode: normal"><tspan x="0" dy="0">😤</tspan></text><path d="M1348.90777,532.8688c0,37.84228 -30.79981,68.5195 -68.79327,68.5195c-37.99348,0 -68.79327,-30.67723 -68.79327,-68.5195c0,-37.84228 30.79981,-68.5195 68.79327,-68.5195c37.99348,0 68.79327,30.67723 68.79327,68.5195z" fill="none" stroke="#ff9519" stroke-width="1.5"/><path d="M1257.0708,588.99787c1.11803,2.23607 -1.11803,3.3541 -1.11803,3.3541l-1.38259,0.67157c-0.19621,0.12978 -0.4118,0.23262 -0.64149,0.30326l-2.35284,0.78428c-0.2642,0.09499 -0.54902,0.14675 -0.84593,0.14675c-0.41372,0 -0.80396,-0.10049 -1.14766,-0.2784c-0.80974,0.36023 -1.61716,0.78768 -2.44531,0.61269c-0.10654,-0.02251 -2.44269,-1.30369 -4.81287,-2.61296l-2.91078,-0.48513c-1.20503,-0.179 -2.12954,-1.21791 -2.12954,-2.47274c0,-0.1733 0.01763,-0.34248 0.0512,-0.50584c-1.48814,-0.64611 -2.908,-1.46491 -4.22106,-2.39809c0,0 -0.53668,-0.39031 -0.85594,-1.04526c-1.41969,0.8682 -3.01849,1.17001 -4.59579,0.53415c-0.11277,-0.04546 -0.22165,-0.09666 -0.32684,-0.15319c-0.55092,0.17988 -1.24406,0.16508 -2.04509,-0.35323c-2.09893,-1.35813 -0.7408,-3.45705 -0.7408,-3.45705c0.0347,-0.05363 0.07532,-0.11687 0.12141,-0.18892c-0.07482,-0.22092 -0.14597,-0.44135 -0.21457,-0.6589c-1.04961,-0.44941 -2.06079,-1.31663 -2.62027,-2.14758c-0.67336,-1.00009 -0.92651,-4.01805 -0.78041,-6.8974c-0.31704,-0.60117 -0.57041,-1.24937 -0.7729,-1.88062c-0.17116,-0.24066 -0.34048,-0.4866 -0.51174,-0.72696c-1.60864,-0.65593 -3.04763,-1.95812 -3.83139,-3.44605c-0.45407,-0.86203 1.97288,-0.72027 2.47474,-1.55539c0.26167,-0.43543 -1.21652,0.3775 -1.52377,-0.02705c-1.49455,-1.96784 -1.6659,-6.12592 -2.46543,-8.50879l-0.12829,-3.25346c0,0 0,-2.5 2.5,-2.5c2.5,0 2.5,2.5 2.5,2.5l-0.12829,1.67232c0.73594,2.22082 0.8264,5.33023 1.91304,7.36315c0.07533,0.14092 0.16646,0.27579 0.26845,0.40633c0.28471,-0.11273 0.59507,-0.17467 0.91989,-0.17467c0.48649,0 0.94052,0.13896 1.32457,0.37934l0.03025,-0.02647c0.44092,-0.38989 1.02051,-0.62653 1.65538,-0.62653c0.94825,0 1.7732,0.52794 2.19694,1.30592c3.91737,1.55872 3.05101,6.63639 0.97245,9.18146c0.21078,-0.05771 0.43267,-0.08852 0.66176,-0.08852c0.56929,0 1.09414,0.19029 1.51441,0.51073c1.18326,-0.69699 2.46605,-1.10551 3.57389,-0.5828c0.36265,0.17111 0.68676,0.37062 0.97443,0.59464c2.52742,0.6701 2.60734,2.59186 1.84929,4.62064c-0.0876,1.62577 -0.67639,3.35556 -1.59013,4.86316c0.37869,0.14666 0.62162,0.32334 0.62162,0.32334c1.63205,1.2226 3.53723,2.16622 5.52258,2.63173l0.08064,0.06147l0.01096,-0.03288l2.4082,0.80273c1.02156,0.31417 1.76412,1.26534 1.76412,2.38994c0,0.1485 -0.01295,0.29398 -0.03778,0.43536c0.55943,0.51791 1.11549,1.05541 1.81412,1.25324c0.62888,0.17808 1.17826,-0.56615 1.76738,-0.84923l0.32754,0.08733l-0.01118,-0.13422l2.86315,-0.2386l1.1522,-0.60072c0,0 2.23607,-1.11803 3.3541,1.11803z" fill="#c9c9c9" stroke="none" stroke-width="0.5"/><path d="M1306.69702,593.23361c-0.92848,-2.32119 1.39272,-3.24967 1.39272,-3.24967l1.2814,-0.51065c0.82101,-0.34836 1.55063,-0.69432 2.21228,-0.9395l1.00724,-0.86335l0.11034,0.12873l0.18143,-0.34416c4.10329,-1.86043 8.00136,-3.81492 11.462,-6.47085c0.08159,-0.15579 0.14523,-0.24594 0.14523,-0.24594c2.77738,-3.93462 5.5491,-7.82973 8.11915,-11.90337l1.60751,-2.67919c0.43183,-0.74893 1.24069,-1.25305 2.16731,-1.25305c0.09098,0 0.18082,0.00486 0.26928,0.01433c0.09051,-0.2235 0.14983,-0.36861 0.16399,-0.402c1.81752,-4.286 4.42236,-8.07608 6.31278,-12.3577l-0.41448,0.52707c0,0 -0.60634,-2.42536 1.81902,-3.0317c2.42536,-0.60634 3.0317,1.81902 3.0317,1.81902l0.13283,2.7163c-1.89175,4.23196 -4.50254,8.02631 -6.2753,12.27117c-0.13387,0.32055 -0.24781,0.65214 -0.35099,0.98956c-0.00791,0.43779 -0.12836,0.8481 -0.33363,1.20323c-0.34323,1.30276 -0.68679,2.60124 -1.52982,3.61165c-0.04132,0.04952 -0.08311,0.09858 -0.12536,0.14718l0.04085,0.02234l-0.21049,0.38499c-0.13065,0.48508 -0.27276,0.9982 -0.418,1.49505c-0.21877,0.92121 -0.58386,1.83013 -0.78831,2.75255l-0.06301,0.07424l0.0389,0.01167l-0.80482,2.68274c-0.29105,1.05813 -1.2601,1.83543 -2.4107,1.83543c-1.38071,0 -2.5,-1.11929 -2.5,-2.5c0,-0.14634 0.01257,-0.28974 0.0367,-0.42918c-0.10523,0.1514 -0.21058,0.30273 -0.31604,0.454c0.52092,1.39068 -0.65232,2.56392 -0.65232,2.56392c-3.35212,3.34901 -7.21422,5.88883 -11.3961,8.01066c-0.04728,0.07791 -0.0987,0.15303 -0.15394,0.22506l-1.62677,2.16903l-0.21891,-0.16418c-0.18564,0.32241 -0.40294,0.62483 -0.66305,0.90025c-0.64119,0.67893 -1.74704,0.2861 -2.76172,0.18747l-0.83046,0.37748c-0.32776,0.15784 -0.69523,0.24629 -1.08336,0.24629c-0.08834,0 -0.1756,-0.00458 -0.26157,-0.01352c-0.21084,0.12125 -0.42172,0.24236 -0.63866,0.34536l-1.45514,0.58397c0,0 -2.32119,0.92848 -3.24967,-1.39272z" fill="#c9c9c9" stroke="none" stroke-width="0.5"/></g></g></svg>