<svg version="1.1" xmlns="http://www.w3.org/2000/svg" xmlns:xlink="http://www.w3.org/1999/xlink" width="194.45391" height="190.43754" viewBox="0,0,194.45391,190.43754"><g transform="translate(-1184.48768,-433.2525)"><g data-paper-data="{&quot;isPaintingLayer&quot;:true}" fill-rule="nonzero" stroke-linecap="butt" stroke-linejoin="miter" stroke-miterlimit="10" stroke-dasharray="" stroke-dashoffset="0" style="mix-blend-mode: normal"><text transform="translate(1186.19564,580.99104) scale(3.41592,3.41592)" font-size="40" xml:space="preserve" fill="#9966ff" fill-rule="nonzero" stroke="none" stroke-width="1" stroke-linecap="butt" stroke-linejoin="miter" stroke-miterlimit="10" stroke-dasharray="" stroke-dashoffset="0" font-family="Sans Serif" font-weight="normal" text-anchor="start" style="mix-blend-mode: normal"><tspan x="0" dy="0">😍</tspan></text><path d="M1348.90777,532.8688c0,37.84228 -30.79981,68.5195 -68.79327,68.5195c-37.99348,0 -68.79327,-30.67723 -68.79327,-68.5195c0,-37.84228 30.79981,-68.5195 68.79327,-68.5195c37.99348,0 68.79327,30.67723 68.79327,68.5195z" fill="none" stroke="#ff9519" stroke-width="1.5"/><path d="M1265.21604,469.23456c0,1.38071 -1.11929,2.5 -2.5,2.5c-0.32548,0 -0.63643,-0.0622 -0.92162,-0.17536c-0.06567,0.00458 -0.10308,0.00458 -0.10308,0.00458c-0.82548,0 -2.60854,0 -3.4978,0c0.28887,0.37675 0.52603,0.78287 0.67731,1.23776c0.58953,1.77274 -1.08155,3.6142 -1.17481,5.48006c0,0 -0.1663,2.49446 -2.66076,2.32817c-2.49446,-0.1663 -2.32817,-2.66076 -2.32817,-2.66076c0.07739,-0.98374 -0.02448,-2.55388 0.2973,-3.53402l-0.11597,0.04349c-0.28795,0.11572 -0.60242,0.17941 -0.93176,0.17941c-0.19679,0 -0.38826,-0.02274 -0.57194,-0.06573c-0.08597,0.06356 -0.16647,0.13035 -0.23739,0.20263c-0.32375,0.32993 -0.64243,0.66473 -0.95876,1.00179c-0.14268,0.36672 -0.36942,0.69145 -0.65655,0.95052c-0.18403,0.1673 -0.52966,0.48151 -0.94191,0.85628c-0.18166,0.27135 -0.54326,0.72039 -1.0848,0.98618c-0.72838,0.66216 -1.43023,1.30021 -1.72302,1.56638c0,0 -1.56166,1.41969 -3.11967,0.21536c-0.42689,0.33773 -0.84554,0.47729 -0.84554,0.47729l-0.97443,0.32421c-3.53826,1.11455 -4.71278,4.67147 -7.50531,6.96405c-0.61911,0.50827 -1.60493,0.45377 -2.17975,1.01164c-0.38385,0.37253 -0.67714,0.81614 -0.92734,1.29351c0.09446,0.26356 0.14593,0.54759 0.14593,0.84365c0,1.08037 -0.68531,2.00069 -1.64493,2.34995c-0.14262,0.22393 -0.30007,0.43618 -0.47825,0.63211c0.04798,0.1934 0.07344,0.39569 0.07344,0.60393c0,0.70111 -0.28861,1.33482 -0.75351,1.78879c-0.26618,1.09455 -1.25284,1.90716 -2.42929,1.90716c-0.22536,0 -0.44375,-0.02982 -0.65145,-0.08572c0.27917,0.52177 0.576,1.04763 0.23652,1.35603c-0.28334,0.2574 -0.63686,0.16817 -1.0131,-0.03319v0.02013c0,0.76306 -0.34186,1.44627 -0.88078,1.90483c-0.17786,1.20634 -1.21737,2.13222 -2.47314,2.13222c-1.38071,0 -2.5,-1.11929 -2.5,-2.5c0,-0.7052 0.29199,-1.34221 0.76166,-1.79672l-0.37728,-2.01215l0.46953,-0.08804v-1.05582h0.76663c-0.37519,-0.25415 -0.64018,-0.54727 -0.57633,-0.95671c0.22467,-1.44078 1.1505,-2.21113 2.24117,-2.78812l-0.25891,-0.35831c-0.30801,-0.41559 -0.49017,-0.93006 -0.49017,-1.48707c0,-1.38071 1.11929,-2.5 2.5,-2.5c0.08959,0 0.17809,0.00471 0.26524,0.0139l0.60106,0.05635c0.89453,-0.9037 2.11949,-0.62111 2.54914,-0.48262c0.35249,-0.85599 0.72629,-1.69748 1.35542,-2.33982c0.68693,-0.70136 1.8387,-0.76219 2.60219,-1.37933c3.43496,-2.77654 4.48333,-6.03245 8.88991,-7.72334l1.07497,-0.35892c0,0 0.58774,-0.19591 1.27558,-0.1001c0.29126,-0.34278 0.67335,-0.60599 1.10907,-0.75242l0.22417,-0.17244c0.17655,-0.88208 0.81729,-1.5965 1.65665,-1.8777c0.12254,-0.21675 0.24692,-0.43247 0.37337,-0.64703l0.39059,-0.58886c0,0 1.05418,-1.58127 2.70298,-1.06732c0.87789,-0.8806 1.67083,-1.61414 1.95324,-1.69825c0.13418,-0.03996 0.26916,-0.07543 0.40486,-0.1069l-0.03773,-0.08804l2.34017,-1.00293c0.31554,-0.1438 0.66621,-0.22391 1.0356,-0.22391c0.21251,0 0.41884,0.02652 0.61584,0.07642c0.45829,-0.56743 1.15972,-0.93034 1.94592,-0.93034c0.16663,0 0.32946,0.0163 0.48697,0.0474c0.16561,-0.09637 0.33458,-0.16886 0.49508,-0.22339c0.27831,-0.10696 0.58059,-0.16558 0.89657,-0.16558c0.85392,0 1.70784,0 2.56175,0h0.28548c0.28201,-0.11026 0.58894,-0.17078 0.91,-0.17078c0.49274,0 0.95219,0.14255 1.33935,0.38866c1.14837,0.22597 2.01457,1.23828 2.01457,2.4529z" fill="#f70a8d" stroke="none" stroke-width="0.5"/><path d="M1295.90979,468.893c0,-1.38071 1.11929,-2.5 2.5,-2.5c0.48472,0 0.93722,0.13795 1.32038,0.37673c0.45126,-0.44421 1.07048,-0.7183 1.75372,-0.7183c1.10704,0 2.04602,0.71956 2.37476,1.71648c2.42529,-0.03394 4.74664,0.45869 7.12272,1.89291c2.37369,1.43278 3.13865,3.14774 5.83313,4.278l0.97645,1.59089c0.6851,-0.42676 1.45442,-0.42676 1.45442,-0.42676l2.02063,0.81832c1.3611,1.52656 2.90638,2.57084 4.51571,3.70707l1.56099,-1.35285l0.16021,0.18486c0.41808,-0.37657 0.895,-0.65866 1.46232,-0.79559c2.0487,-0.4945 3.22637,-0.01414 3.8748,0.92443c0.95814,0.4352 1.72611,1.36826 2.35151,2.36063c0.14567,-0.02642 0.29574,-0.04022 0.44904,-0.04022c1.1246,0 2.07576,0.74256 2.38994,1.76412l1.00647,3.01941l-0.08035,0.02678c0.08264,0.22232 0.15262,0.44973 0.20734,0.68327c0.11499,0.49071 0.06503,0.98107 -0.06196,1.47126c0.2535,-0.08655 0.52534,-0.1335 0.80814,-0.1335c1.38071,0 2.5,1.11929 2.5,2.5c0,0.42554 -0.10632,0.82624 -0.29384,1.177c1.05582,0.29256 1.83089,1.26049 1.83089,2.40945c0,0.2427 -0.03459,0.47733 -0.0991,0.69922l-0.11017,0.41316c0.06514,0.47164 0.00447,0.83567 0.00447,0.83567l-0.7283,2.22856l-0.98232,1.16093c0.23979,0.38372 0.37837,0.83719 0.37837,1.32302c0,1.38071 -1.11929,2.5 -2.5,2.5c-1.35774,0 -2.46268,-1.08235 -2.49907,-2.4313c-0.78077,-0.14181 -1.43518,-0.64625 -1.78241,-1.33251c-1.29542,-0.09355 -2.31732,-1.17415 -2.31732,-2.49343c0,-0.31231 0.05727,-0.61125 0.16187,-0.88688l0.05061,-0.14339c-1.01404,-0.31871 -1.74953,-1.26616 -1.74953,-2.3854c0,-0.03412 0.00068,-0.06809 0.00204,-0.10188c-1.16665,-0.21135 -2.05144,-1.23228 -2.05144,-2.45987c0,-0.03161 0.00059,-0.06308 0.00175,-0.0944c-0.13184,0.02148 -0.26715,0.03265 -0.40507,0.03265c-1.33139,0 -2.41969,-1.04074 -2.49575,-2.35306l-0.16949,-2.54239l0.08927,-0.00595c-0.03169,-0.1648 -0.05593,-0.33144 -0.07159,-0.5002c-0.01182,-0.12731 -0.01062,-0.26745 0.00262,-0.41822c-0.01804,0.00185 -0.03614,0.00351 -0.0543,0.00498c-1.27933,0.63798 -2.55798,-0.32101 -2.55798,-0.32101c-2.1246,-1.59563 -4.12157,-2.87029 -5.96508,-4.71604c-0.44043,-0.19707 -0.89819,-0.54162 -1.15253,-1.14402c-0.30173,0.13166 -0.6693,0.21186 -1.11706,0.21186c-0.96781,0 -1.56096,-0.37466 -1.92449,-0.83391c-3.29279,-1.7908 -5.81461,-4.94533 -9.45494,-5.69657c-1.39351,-0.28757 -2.78883,0.5663 -4.18393,0.84607c0,0 -2.45145,0.49029 -2.94174,-1.96116c-0.00861,-0.04307 -0.01632,-0.08553 -0.02315,-0.1274c-0.82468,-0.40855 -1.39167,-1.25882 -1.39167,-2.24151z" fill="#f70a8d" stroke="none" stroke-width="0.5"/></g></g></svg>