<svg version="1.1" xmlns="http://www.w3.org/2000/svg" xmlns:xlink="http://www.w3.org/1999/xlink" width="194.45391" height="190.43754" viewBox="0,0,194.45391,190.43754"><g transform="translate(-1184.48767,-433.2525)"><g data-paper-data="{&quot;isPaintingLayer&quot;:true}" fill-rule="nonzero" stroke-linecap="butt" stroke-linejoin="miter" stroke-miterlimit="10" stroke-dasharray="" stroke-dashoffset="0" style="mix-blend-mode: normal"><text transform="translate(1186.19563,580.99104) scale(3.41592,3.41592)" font-size="40" xml:space="preserve" fill="#9966ff" fill-rule="nonzero" stroke="none" stroke-width="1" stroke-linecap="butt" stroke-linejoin="miter" stroke-miterlimit="10" stroke-dasharray="" stroke-dashoffset="0" font-family="Sans Serif" font-weight="normal" text-anchor="start" style="mix-blend-mode: normal"><tspan x="0" dy="0">😴</tspan></text><path d="M1348.90776,532.8688c0,37.84228 -30.79981,68.5195 -68.79327,68.5195c-37.99348,0 -68.79327,-30.67723 -68.79327,-68.5195c0,-37.84228 30.79981,-68.5195 68.79327,-68.5195c37.99348,0 68.79327,30.67723 68.79327,68.5195z" fill="none" stroke="#ffe600" stroke-width="1.5"/><path d="M1334.05448,488.51418c0,1.38071 -1.11929,2.5 -2.5,2.5c-1.37671,0 -2.49351,-1.11281 -2.49997,-2.48799c-0.1214,-0.29391 -0.18838,-0.61603 -0.18838,-0.95379c0,-0.15174 0.01352,-0.30033 0.03942,-0.44462c-0.39865,-0.12906 -0.75345,-0.35553 -1.03634,-0.65136c-1.24175,-0.1459 -2.20514,-1.20184 -2.20514,-2.48279c0,-1.38071 1.11929,-2.5 2.5,-2.5c0.71057,0 1.3519,0.29645 1.80706,0.77241c1.24175,0.1459 2.20514,1.20184 2.20514,2.48279c0,0.15174 -0.01352,0.30033 -0.03942,0.44462c0.99995,0.32372 1.72405,1.26039 1.72925,2.36694c0.1214,0.29391 0.18838,0.61603 0.18838,0.95379z" fill="#00a6ed" stroke="none" stroke-width="0.5"/><path d="M1334.1401,493.78815c0,-1.38071 1.11929,-2.5 2.5,-2.5c1.2437,0 2.27529,0.90817 2.46777,2.09753c1.18137,0.69612 2.36275,1.39224 3.54412,2.08836l-2.11736,0.91885l1.37355,1.49842l-0.68663,0.62941l0.257,0.44057l-0.54928,0.32042l0.03618,0.08521c0,0 -0.38453,0.2884 -0.94282,0.44367l-0.76743,0.44766c-0.37805,0.22977 -0.82187,0.36209 -1.2966,0.36209c-1.38071,0 -2.5,-1.11929 -2.5,-2.5c0,-0.40224 0.09499,-0.78229 0.26377,-1.11894c-0.30776,-0.2997 -0.57468,-0.71151 -0.64789,-1.26408c-0.56975,-0.45822 -0.93438,-1.16112 -0.93438,-1.94917z" fill="#00a6ed" stroke="none" stroke-width="0.5"/><path d="M1313.60927,474.57581c0,-1.38071 1.11929,-2.5 2.5,-2.5c0.38209,0 0.74415,0.08572 1.06802,0.23897c1.13965,0.23277 1.99705,1.24095 1.99705,2.44939c0,0.15254 -0.01366,0.30189 -0.03983,0.4469c0.28037,-0.08678 0.48017,-0.10781 0.48017,-0.10781c1.19292,-0.12557 2.38585,-0.25114 3.57877,-0.37671l2.10729,-0.19183c0,0 2.48973,-0.22634 2.71607,2.26339c0.22634,2.48973 -2.26339,2.71607 -2.26339,2.71607l-2.03655,0.18489c-1.19292,0.12557 -2.38585,0.25114 -3.57877,0.37671c0,0 -2.48626,0.26171 -2.74798,-2.22455c-0.02659,-0.25261 -0.02481,-0.48225 -0.00016,-0.69099c-0.22672,0.06762 -0.46694,0.10393 -0.71563,0.10393c-0.38209,0 -0.74415,-0.08572 -1.06802,-0.23897c-1.13965,-0.23277 -1.99705,-1.24095 -1.99705,-2.44939z" fill="#00a6ed" stroke="none" stroke-width="0.5"/></g></g></svg>