<svg version="1.1" xmlns="http://www.w3.org/2000/svg" xmlns:xlink="http://www.w3.org/1999/xlink" width="194.45391" height="190.43754" viewBox="0,0,194.45391,190.43754"><g transform="translate(-1184.48768,-433.2525)"><g data-paper-data="{&quot;isPaintingLayer&quot;:true}" fill-rule="nonzero" stroke-linecap="butt" stroke-linejoin="miter" stroke-miterlimit="10" stroke-dasharray="" stroke-dashoffset="0" style="mix-blend-mode: normal"><text transform="translate(1186.19564,580.99104) scale(3.41592,3.41592)" font-size="40" xml:space="preserve" fill="#9966ff" fill-rule="nonzero" stroke="none" stroke-width="1" stroke-linecap="butt" stroke-linejoin="miter" stroke-miterlimit="10" stroke-dasharray="" stroke-dashoffset="0" font-family="Sans Serif" font-weight="normal" text-anchor="start" style="mix-blend-mode: normal"><tspan x="0" dy="0">😰</tspan></text><path d="M1348.90777,532.8688c0,37.84228 -30.79981,68.5195 -68.79327,68.5195c-37.99348,0 -68.79327,-30.67723 -68.79327,-68.5195c0,-37.84228 30.79981,-68.5195 68.79327,-68.5195c37.99348,0 68.79327,30.67723 68.79327,68.5195z" fill="none" stroke="#ff9519" stroke-width="1.5"/><path d="M1221.72599,574.50762c-1.89814,-1.62698 -0.27116,-3.52512 -0.27116,-3.52512l1.06791,1.47709c-0.82415,-1.38092 -1.53236,-2.22014 -1.8734,-3.23108c-0.76547,-0.25303 -1.36716,-0.86593 -1.6047,-1.63831l-0.69777,-2.0933c-0.10566,0.01362 -0.21339,0.02064 -0.32276,0.02064c-0.38161,0 -0.74324,-0.0855 -1.0668,-0.23839c-0.06875,0.00568 -0.13829,0.00857 -0.2085,0.00857c-1.15957,0 -2.13475,-0.78946 -2.41738,-1.86021l-0.84086,-2.91421l0.09848,-0.02842l-0.26651,-0.44419l0.05604,-0.03363c-0.09046,-0.13049 -0.1779,-0.26337 -0.26202,-0.39887c-0.8391,-1.3516 -0.5214,-3.13875 -0.7821,-4.70812l0.05803,-0.19555h-0.06569v-3.70722c-0.35331,-0.24789 -0.63954,-0.58488 -0.82606,-0.97835l-1.2547,-2.50941l0.39274,-0.19637c-0.92163,-1.66837 -0.88872,-3.22184 0.13092,-6.27835l-0.75446,-1.6598c-0.15784,-0.32776 -0.24629,-0.69523 -0.24629,-1.08336c0,-1.38071 1.11929,-2.5 2.5,-2.5c0.69036,0 1.31536,0.27982 1.76777,0.73223l2.13154,2.13154l-0.05625,0.05625c0.11404,0.0872 0.22543,0.17837 0.33384,0.27398c1.04972,0.92574 1.11516,2.57387 1.81141,3.78801c3.4283,5.97838 6.42278,12.188 6.72844,19.06303c2.46386,1.36684 0.00398,4.45746 0.5544,6.23702c0.20513,0.6632 0.80062,1.13432 1.20093,1.70148l-1.48994,4.46125c0,0 -1.62698,1.89814 -3.52512,0.27116z" fill="#3f5fff" stroke="none" stroke-width="0.5"/></g></g></svg>